<!DOCTYPE svg PUBLIC "-//W3C//DTD SVG 1.1//EN" "http://www.w3.org/Graphics/SVG/1.1/DTD/svg11.dtd">
<svg width="200px" height="200px" viewBox="0 0 24 24" xmlns="http://www.w3.org/2000/svg" fill="none" stroke="#000000" stroke-width="0">
<g id="SVGRepo_bgCarrier" stroke-width="0"/>
<g id="SVGRepo_iconCarrier">
<path fill="#4FE1C4" d="M12 7a5 5 0 0 0-2 9.584V19h4v-2.416A5.001 5.001 0 0 0 12 7z"/>
<path stroke="#4FE1C4" stroke-linecap="round" stroke-linejoin="round" stroke-width="2" d="M21 12h1m-3.5-6.5 1-1M12 3V2M5.5 5.5l-1-1M3 12H2m8 10h4m3-10a5 5 0 1 0-7 4.584V19h4v-2.416A5.001 5.001 0 0 0 17 12z"/>
</g>
</svg>