<?xml version="1.0" encoding="UTF-8"?>
<svg xmlns="http://www.w3.org/2000/svg" xmlns:xlink="http://www.w3.org/1999/xlink" viewBox="0 0 192 192" width="192px" height="192px">
<g id="surface5894753">
<path style=" stroke:none;fill-rule:nonzero;fill:rgb(30.980393%,88.235295%,76.862746%);fill-opacity:1;" d="M 96 16 C 51.886719 16 16 51.886719 16 96 C 16 140.113281 51.886719 176 96 176 C 140.113281 176 176 140.113281 176 96 C 176 86.992188 174.433594 78.355469 171.671875 70.265625 L 158.71875 83.21875 C 159.558594 87.347656 160 91.625 160 96 C 160 131.289062 131.289062 160 96 160 C 60.710938 160 32 131.289062 32 96 C 32 60.710938 60.710938 32 96 32 C 109.0625 32 121.214844 35.949219 131.359375 42.703125 L 142.8125 31.25 C 129.628906 21.699219 113.480469 16 96 16 Z M 170.34375 26.34375 L 88 108.6875 L 61.65625 82.34375 L 50.34375 93.65625 L 88 131.3125 L 181.65625 37.65625 Z M 170.34375 26.34375 "/>
</g>
</svg>
