<?xml version="1.0" encoding="UTF-8"?>
<svg xmlns="http://www.w3.org/2000/svg" xmlns:xlink="http://www.w3.org/1999/xlink" viewBox="0 0 100 100" width="100px" height="100px">
<g id="surface114552196">
<path style=" stroke:none;fill-rule:nonzero;fill:rgb(92.941177%,58.039218%,30.19608%);fill-opacity:1;" d="M 50 4 C 24.636719 4 4 24.632812 4 50 C 4 75.367188 24.636719 96 50 96 C 75.363281 96 96 75.367188 96 50 C 96 24.632812 75.363281 4 50 4 Z M 36 70 L 28 70 L 28 40 L 36 40 Z M 32 34 C 29.789062 34 28 32.210938 28 30 C 28 27.789062 29.789062 26 32 26 C 34.210938 26 36 27.789062 36 30 C 36 32.210938 34.210938 34 32 34 Z M 74 70 L 66 70 L 66 55 C 66 51.148438 62.851562 48 59 48 C 55.148438 48 52 51.148438 52 55 L 52 70 L 44 70 L 44 40 L 52 40 L 52 43.632812 C 54.335938 41.386719 57.503906 40 61 40 C 68.179688 40 74 45.820312 74 53 Z M 74 70 "/>
</g>
</svg>
